<svg width="1440" height="260" viewBox="0 0 1440 260" fill="none" xmlns="http://www.w3.org/2000/svg" preserveAspectRatio="none">
  <path d="M0 32L48 42.7C96 53.3 192 74.7 288 80C384 85.3 480 74.7 576 74.7C672 74.7 768 85.3 864 85.3C960 85.3 1056 74.7 1152 80C1248 85.3 1344 106.7 1392 117.3L1440 128V0H1392C1344 0 1248 0 1152 0C1056 0 960 0 864 0C768 0 672 0 576 0C480 0 384 0 288 0C192 0 96 0 48 0H0V32Z" fill="url(#paint0_linear_top)"/>
  <defs>
    <linearGradient id="paint0_linear_top" x1="720" y1="0" x2="720" y2="128" gradientUnits="userSpaceOnUse">
      <stop stop-color="#8BC6FF" stop-opacity="0.45"/>
      <stop offset="1" stop-color="#8BC6FF" stop-opacity="0"/>
    </linearGradient>
  </defs>
</svg>
